<svg width="25" height="25" viewBox="0 0 25 25" fill="none" xmlns="http://www.w3.org/2000/svg">
<path d="M12.5 25C19.4036 25 25 19.4036 25 12.5C25 5.59644 19.4036 0 12.5 0C5.59644 0 0 5.59644 0 12.5C0 19.4036 5.59644 25 12.5 25Z" fill="#4077C1"/>
<path fill-rule="evenodd" clip-rule="evenodd" d="M9.78398 15.957L6.80087 12.9739C6.49578 12.6688 6.49578 12.1742 6.80087 11.8691L7.62951 11.0404C7.93461 10.7353 8.42927 10.7353 8.73437 11.0404L11.165 13.4711L16.4131 8.22304C16.7182 7.91794 17.2129 7.91794 17.518 8.22304L18.4018 9.10692C18.7069 9.41202 18.7069 9.90668 18.4018 10.2118L11.7727 16.8409C11.4676 17.146 10.973 17.146 10.6679 16.8409L9.78398 15.957Z" fill="white"/>
</svg>
